<mxfile host="app.diagrams.net" agent="Mozilla/5.0 (X11; Linux x86_64) AppleWebKit/537.36 (KHTML, like Gecko) Chrome/138.0.0.0 Safari/537.36" version="28.0.7">
  <diagram name="Seite-1" id="dAcKR4Bfe2L1xaJW2Gbn">
    <mxGraphModel dx="2253" dy="831" grid="1" gridSize="10" guides="1" tooltips="1" connect="1" arrows="1" fold="1" page="1" pageScale="1" pageWidth="827" pageHeight="1169" math="0" shadow="0">
      <root>
        <mxCell id="0" />
        <mxCell id="1" parent="0" />
        <mxCell id="pC6qjMNUaUX_Bs6oKTgu-78" value="" style="edgeStyle=elbowEdgeStyle;rounded=0;orthogonalLoop=1;jettySize=auto;html=1;elbow=vertical;startArrow=none;endArrow=none;" parent="1" source="pC6qjMNUaUX_Bs6oKTgu-1" target="pC6qjMNUaUX_Bs6oKTgu-77" edge="1">
          <mxGeometry relative="1" as="geometry" />
        </mxCell>
        <mxCell id="pC6qjMNUaUX_Bs6oKTgu-1" value="Cloudstack MySQL" style="swimlane;startSize=20;horizontal=1;containerType=tree;newEdgeStyle={&quot;edgeStyle&quot;:&quot;elbowEdgeStyle&quot;,&quot;startArrow&quot;:&quot;none&quot;,&quot;endArrow&quot;:&quot;none&quot;};" parent="1" vertex="1">
          <mxGeometry x="-540" y="150" width="1430" height="430" as="geometry" />
        </mxCell>
        <mxCell id="pC6qjMNUaUX_Bs6oKTgu-2" value="" style="edgeStyle=elbowEdgeStyle;elbow=vertical;sourcePerimeterSpacing=0;targetPerimeterSpacing=0;startArrow=none;endArrow=none;rounded=0;curved=0;" parent="pC6qjMNUaUX_Bs6oKTgu-1" source="pC6qjMNUaUX_Bs6oKTgu-4" target="pC6qjMNUaUX_Bs6oKTgu-5" edge="1">
          <mxGeometry relative="1" as="geometry" />
        </mxCell>
        <mxCell id="pC6qjMNUaUX_Bs6oKTgu-3" value="" style="edgeStyle=elbowEdgeStyle;elbow=vertical;sourcePerimeterSpacing=0;targetPerimeterSpacing=0;startArrow=none;endArrow=none;rounded=0;curved=0;" parent="pC6qjMNUaUX_Bs6oKTgu-1" source="pC6qjMNUaUX_Bs6oKTgu-4" target="pC6qjMNUaUX_Bs6oKTgu-6" edge="1">
          <mxGeometry relative="1" as="geometry" />
        </mxCell>
        <UserObject label="Sytemhaus" treeRoot="1" id="pC6qjMNUaUX_Bs6oKTgu-4">
          <mxCell style="whiteSpace=wrap;html=1;align=center;treeFolding=1;treeMoving=1;newEdgeStyle={&quot;edgeStyle&quot;:&quot;elbowEdgeStyle&quot;,&quot;startArrow&quot;:&quot;none&quot;,&quot;endArrow&quot;:&quot;none&quot;};" parent="pC6qjMNUaUX_Bs6oKTgu-1" vertex="1">
            <mxGeometry x="524" y="40" width="120" height="60" as="geometry" />
          </mxCell>
        </UserObject>
        <mxCell id="pC6qjMNUaUX_Bs6oKTgu-5" value="Kunde 1" style="whiteSpace=wrap;html=1;align=center;verticalAlign=middle;treeFolding=1;treeMoving=1;newEdgeStyle={&quot;edgeStyle&quot;:&quot;elbowEdgeStyle&quot;,&quot;startArrow&quot;:&quot;none&quot;,&quot;endArrow&quot;:&quot;none&quot;};" parent="pC6qjMNUaUX_Bs6oKTgu-1" vertex="1">
          <mxGeometry x="350" y="140" width="100" height="60" as="geometry" />
        </mxCell>
        <mxCell id="pC6qjMNUaUX_Bs6oKTgu-6" value="Kunde 2" style="whiteSpace=wrap;html=1;align=center;verticalAlign=middle;treeFolding=1;treeMoving=1;newEdgeStyle={&quot;edgeStyle&quot;:&quot;elbowEdgeStyle&quot;,&quot;startArrow&quot;:&quot;none&quot;,&quot;endArrow&quot;:&quot;none&quot;};" parent="pC6qjMNUaUX_Bs6oKTgu-1" vertex="1">
          <mxGeometry x="1037" y="140" width="100" height="60" as="geometry" />
        </mxCell>
        <mxCell id="pC6qjMNUaUX_Bs6oKTgu-10" value="" style="edgeStyle=elbowEdgeStyle;elbow=vertical;sourcePerimeterSpacing=0;targetPerimeterSpacing=0;startArrow=none;endArrow=none;rounded=0;curved=0;" parent="pC6qjMNUaUX_Bs6oKTgu-1" source="pC6qjMNUaUX_Bs6oKTgu-6" target="pC6qjMNUaUX_Bs6oKTgu-11" edge="1">
          <mxGeometry relative="1" as="geometry">
            <mxPoint x="380" y="140" as="sourcePoint" />
          </mxGeometry>
        </mxCell>
        <mxCell id="pC6qjMNUaUX_Bs6oKTgu-11" value="x VMs" style="whiteSpace=wrap;html=1;align=center;verticalAlign=middle;treeFolding=1;treeMoving=1;newEdgeStyle={&quot;edgeStyle&quot;:&quot;elbowEdgeStyle&quot;,&quot;startArrow&quot;:&quot;none&quot;,&quot;endArrow&quot;:&quot;none&quot;};fillColor=light-dark(#FFFFFF,#FF1A6E);" parent="pC6qjMNUaUX_Bs6oKTgu-1" vertex="1">
          <mxGeometry x="937" y="240" width="100" height="60" as="geometry" />
        </mxCell>
        <mxCell id="pC6qjMNUaUX_Bs6oKTgu-12" value="" style="edgeStyle=elbowEdgeStyle;elbow=vertical;sourcePerimeterSpacing=0;targetPerimeterSpacing=0;startArrow=none;endArrow=none;rounded=0;curved=0;exitX=0.5;exitY=1;exitDx=0;exitDy=0;" parent="pC6qjMNUaUX_Bs6oKTgu-1" source="pC6qjMNUaUX_Bs6oKTgu-11" target="pC6qjMNUaUX_Bs6oKTgu-13" edge="1">
          <mxGeometry relative="1" as="geometry">
            <mxPoint x="380" y="140" as="sourcePoint" />
          </mxGeometry>
        </mxCell>
        <mxCell id="pC6qjMNUaUX_Bs6oKTgu-13" value="x CPUs" style="whiteSpace=wrap;html=1;align=center;verticalAlign=middle;treeFolding=1;treeMoving=1;newEdgeStyle={&quot;edgeStyle&quot;:&quot;elbowEdgeStyle&quot;,&quot;startArrow&quot;:&quot;none&quot;,&quot;endArrow&quot;:&quot;none&quot;};fillColor=light-dark(#FFFFFF,#FF1A6E);" parent="pC6qjMNUaUX_Bs6oKTgu-1" vertex="1">
          <mxGeometry x="700" y="340" width="100" height="60" as="geometry" />
        </mxCell>
        <mxCell id="pC6qjMNUaUX_Bs6oKTgu-14" value="" style="edgeStyle=elbowEdgeStyle;elbow=vertical;sourcePerimeterSpacing=0;targetPerimeterSpacing=0;startArrow=none;endArrow=none;rounded=0;curved=0;exitX=0.5;exitY=1;exitDx=0;exitDy=0;" parent="pC6qjMNUaUX_Bs6oKTgu-1" source="pC6qjMNUaUX_Bs6oKTgu-11" target="pC6qjMNUaUX_Bs6oKTgu-15" edge="1">
          <mxGeometry relative="1" as="geometry">
            <mxPoint x="380" y="140" as="sourcePoint" />
          </mxGeometry>
        </mxCell>
        <mxCell id="pC6qjMNUaUX_Bs6oKTgu-15" value="x GPUs" style="whiteSpace=wrap;html=1;align=center;verticalAlign=middle;treeFolding=1;treeMoving=1;newEdgeStyle={&quot;edgeStyle&quot;:&quot;elbowEdgeStyle&quot;,&quot;startArrow&quot;:&quot;none&quot;,&quot;endArrow&quot;:&quot;none&quot;};fillColor=light-dark(#FFFFFF,#FF1A6E);" parent="pC6qjMNUaUX_Bs6oKTgu-1" vertex="1">
          <mxGeometry x="820" y="340" width="100" height="60" as="geometry" />
        </mxCell>
        <mxCell id="pC6qjMNUaUX_Bs6oKTgu-16" value="" style="edgeStyle=elbowEdgeStyle;elbow=vertical;sourcePerimeterSpacing=0;targetPerimeterSpacing=0;startArrow=none;endArrow=none;rounded=0;curved=0;exitX=0.5;exitY=1;exitDx=0;exitDy=0;" parent="pC6qjMNUaUX_Bs6oKTgu-1" source="pC6qjMNUaUX_Bs6oKTgu-11" target="pC6qjMNUaUX_Bs6oKTgu-17" edge="1">
          <mxGeometry relative="1" as="geometry">
            <mxPoint x="970" y="310" as="sourcePoint" />
          </mxGeometry>
        </mxCell>
        <mxCell id="pC6qjMNUaUX_Bs6oKTgu-17" value="HDD/SSD" style="whiteSpace=wrap;html=1;align=center;verticalAlign=middle;treeFolding=1;treeMoving=1;newEdgeStyle={&quot;edgeStyle&quot;:&quot;elbowEdgeStyle&quot;,&quot;startArrow&quot;:&quot;none&quot;,&quot;endArrow&quot;:&quot;none&quot;};fillColor=light-dark(#FFFFFF,#FF1A6E);" parent="pC6qjMNUaUX_Bs6oKTgu-1" vertex="1">
          <mxGeometry x="937" y="340" width="100" height="60" as="geometry" />
        </mxCell>
        <mxCell id="pC6qjMNUaUX_Bs6oKTgu-18" value="" style="edgeStyle=elbowEdgeStyle;elbow=vertical;sourcePerimeterSpacing=0;targetPerimeterSpacing=0;startArrow=none;endArrow=none;rounded=0;curved=0;" parent="pC6qjMNUaUX_Bs6oKTgu-1" source="pC6qjMNUaUX_Bs6oKTgu-6" target="pC6qjMNUaUX_Bs6oKTgu-19" edge="1">
          <mxGeometry relative="1" as="geometry">
            <mxPoint x="380" y="140" as="sourcePoint" />
          </mxGeometry>
        </mxCell>
        <mxCell id="pC6qjMNUaUX_Bs6oKTgu-20" value="Text" style="edgeLabel;html=1;align=center;verticalAlign=middle;resizable=0;points=[];" parent="pC6qjMNUaUX_Bs6oKTgu-18" vertex="1" connectable="0">
          <mxGeometry x="-0.9375" y="-1" relative="1" as="geometry">
            <mxPoint as="offset" />
          </mxGeometry>
        </mxCell>
        <mxCell id="pC6qjMNUaUX_Bs6oKTgu-19" value="IPs, Agents" style="whiteSpace=wrap;html=1;align=center;verticalAlign=middle;treeFolding=1;treeMoving=1;newEdgeStyle={&quot;edgeStyle&quot;:&quot;elbowEdgeStyle&quot;,&quot;startArrow&quot;:&quot;none&quot;,&quot;endArrow&quot;:&quot;none&quot;};fillColor=light-dark(#FFFFFF,#0F1893);" parent="pC6qjMNUaUX_Bs6oKTgu-1" vertex="1">
          <mxGeometry x="1137" y="240" width="100" height="60" as="geometry" />
        </mxCell>
        <mxCell id="pC6qjMNUaUX_Bs6oKTgu-30" value="" style="edgeStyle=elbowEdgeStyle;elbow=vertical;sourcePerimeterSpacing=0;targetPerimeterSpacing=0;startArrow=none;endArrow=none;rounded=0;curved=0;" parent="pC6qjMNUaUX_Bs6oKTgu-1" source="pC6qjMNUaUX_Bs6oKTgu-5" target="pC6qjMNUaUX_Bs6oKTgu-31" edge="1">
          <mxGeometry relative="1" as="geometry">
            <mxPoint x="380" y="140" as="sourcePoint" />
          </mxGeometry>
        </mxCell>
        <mxCell id="pC6qjMNUaUX_Bs6oKTgu-31" value="x VMs" style="whiteSpace=wrap;html=1;align=center;verticalAlign=middle;treeFolding=1;treeMoving=1;newEdgeStyle={&quot;edgeStyle&quot;:&quot;elbowEdgeStyle&quot;,&quot;startArrow&quot;:&quot;none&quot;,&quot;endArrow&quot;:&quot;none&quot;};fillColor=light-dark(#FFFFFF,#FF1A6E);" parent="pC6qjMNUaUX_Bs6oKTgu-1" vertex="1">
          <mxGeometry x="250" y="240" width="100" height="60" as="geometry" />
        </mxCell>
        <mxCell id="pC6qjMNUaUX_Bs6oKTgu-37" value="IPs, Agents" style="whiteSpace=wrap;html=1;align=center;verticalAlign=middle;treeFolding=1;treeMoving=1;newEdgeStyle={&quot;edgeStyle&quot;:&quot;elbowEdgeStyle&quot;,&quot;startArrow&quot;:&quot;none&quot;,&quot;endArrow&quot;:&quot;none&quot;};fillColor=light-dark(#FFFFFF,#0F1893);" parent="pC6qjMNUaUX_Bs6oKTgu-1" vertex="1">
          <mxGeometry x="450" y="240" width="100" height="60" as="geometry" />
        </mxCell>
        <mxCell id="pC6qjMNUaUX_Bs6oKTgu-36" value="" style="edgeStyle=elbowEdgeStyle;elbow=vertical;sourcePerimeterSpacing=0;targetPerimeterSpacing=0;startArrow=none;endArrow=none;rounded=0;curved=0;" parent="pC6qjMNUaUX_Bs6oKTgu-1" source="pC6qjMNUaUX_Bs6oKTgu-5" target="pC6qjMNUaUX_Bs6oKTgu-37" edge="1">
          <mxGeometry relative="1" as="geometry">
            <mxPoint x="850" y="130" as="sourcePoint" />
          </mxGeometry>
        </mxCell>
        <mxCell id="pC6qjMNUaUX_Bs6oKTgu-48" value="" style="edgeStyle=elbowEdgeStyle;elbow=vertical;sourcePerimeterSpacing=0;targetPerimeterSpacing=0;startArrow=none;endArrow=none;rounded=0;curved=0;" parent="pC6qjMNUaUX_Bs6oKTgu-1" source="pC6qjMNUaUX_Bs6oKTgu-11" target="pC6qjMNUaUX_Bs6oKTgu-49" edge="1">
          <mxGeometry relative="1" as="geometry">
            <mxPoint x="770" y="280" as="sourcePoint" />
          </mxGeometry>
        </mxCell>
        <mxCell id="pC6qjMNUaUX_Bs6oKTgu-49" value="x RAM" style="whiteSpace=wrap;html=1;align=center;verticalAlign=middle;treeFolding=1;treeMoving=1;newEdgeStyle={&quot;edgeStyle&quot;:&quot;elbowEdgeStyle&quot;,&quot;startArrow&quot;:&quot;none&quot;,&quot;endArrow&quot;:&quot;none&quot;};fillColor=light-dark(#FFFFFF,#FF1A6E);" parent="pC6qjMNUaUX_Bs6oKTgu-1" vertex="1">
          <mxGeometry x="1047" y="340" width="100" height="60" as="geometry" />
        </mxCell>
        <mxCell id="pC6qjMNUaUX_Bs6oKTgu-65" value="" style="edgeStyle=elbowEdgeStyle;elbow=vertical;sourcePerimeterSpacing=0;targetPerimeterSpacing=0;startArrow=none;endArrow=none;rounded=0;curved=0;" parent="pC6qjMNUaUX_Bs6oKTgu-1" source="pC6qjMNUaUX_Bs6oKTgu-31" target="pC6qjMNUaUX_Bs6oKTgu-66" edge="1">
          <mxGeometry relative="1" as="geometry">
            <mxPoint x="-20" y="280" as="sourcePoint" />
          </mxGeometry>
        </mxCell>
        <mxCell id="pC6qjMNUaUX_Bs6oKTgu-66" value="x GPUs" style="whiteSpace=wrap;html=1;align=center;verticalAlign=middle;treeFolding=1;treeMoving=1;newEdgeStyle={&quot;edgeStyle&quot;:&quot;elbowEdgeStyle&quot;,&quot;startArrow&quot;:&quot;none&quot;,&quot;endArrow&quot;:&quot;none&quot;};fillColor=light-dark(#FFFFFF,#FF1A6E);" parent="pC6qjMNUaUX_Bs6oKTgu-1" vertex="1">
          <mxGeometry x="130" y="340" width="100" height="60" as="geometry" />
        </mxCell>
        <mxCell id="pC6qjMNUaUX_Bs6oKTgu-67" value="" style="edgeStyle=elbowEdgeStyle;elbow=vertical;sourcePerimeterSpacing=0;targetPerimeterSpacing=0;startArrow=none;endArrow=none;rounded=0;curved=0;" parent="pC6qjMNUaUX_Bs6oKTgu-1" source="pC6qjMNUaUX_Bs6oKTgu-31" target="pC6qjMNUaUX_Bs6oKTgu-68" edge="1">
          <mxGeometry relative="1" as="geometry">
            <mxPoint x="-20" y="280" as="sourcePoint" />
          </mxGeometry>
        </mxCell>
        <mxCell id="pC6qjMNUaUX_Bs6oKTgu-68" value="HDD/SSD" style="whiteSpace=wrap;html=1;align=center;verticalAlign=middle;treeFolding=1;treeMoving=1;newEdgeStyle={&quot;edgeStyle&quot;:&quot;elbowEdgeStyle&quot;,&quot;startArrow&quot;:&quot;none&quot;,&quot;endArrow&quot;:&quot;none&quot;};fillColor=light-dark(#FFFFFF,#FF1A6E);" parent="pC6qjMNUaUX_Bs6oKTgu-1" vertex="1">
          <mxGeometry x="250" y="340" width="100" height="60" as="geometry" />
        </mxCell>
        <mxCell id="pC6qjMNUaUX_Bs6oKTgu-69" value="" style="edgeStyle=elbowEdgeStyle;elbow=vertical;sourcePerimeterSpacing=0;targetPerimeterSpacing=0;startArrow=none;endArrow=none;rounded=0;curved=0;" parent="pC6qjMNUaUX_Bs6oKTgu-1" source="pC6qjMNUaUX_Bs6oKTgu-31" target="pC6qjMNUaUX_Bs6oKTgu-70" edge="1">
          <mxGeometry relative="1" as="geometry">
            <mxPoint x="-20" y="280" as="sourcePoint" />
          </mxGeometry>
        </mxCell>
        <mxCell id="pC6qjMNUaUX_Bs6oKTgu-70" value="x RAM" style="whiteSpace=wrap;html=1;align=center;verticalAlign=middle;treeFolding=1;treeMoving=1;newEdgeStyle={&quot;edgeStyle&quot;:&quot;elbowEdgeStyle&quot;,&quot;startArrow&quot;:&quot;none&quot;,&quot;endArrow&quot;:&quot;none&quot;};fillColor=light-dark(#FFFFFF,#FF1A6E);" parent="pC6qjMNUaUX_Bs6oKTgu-1" vertex="1">
          <mxGeometry x="360" y="340" width="100" height="60" as="geometry" />
        </mxCell>
        <mxCell id="pC6qjMNUaUX_Bs6oKTgu-71" value="" style="edgeStyle=elbowEdgeStyle;elbow=vertical;sourcePerimeterSpacing=0;targetPerimeterSpacing=0;startArrow=none;endArrow=none;rounded=0;curved=0;" parent="pC6qjMNUaUX_Bs6oKTgu-1" source="pC6qjMNUaUX_Bs6oKTgu-31" target="pC6qjMNUaUX_Bs6oKTgu-72" edge="1">
          <mxGeometry relative="1" as="geometry">
            <mxPoint x="-20" y="280" as="sourcePoint" />
          </mxGeometry>
        </mxCell>
        <mxCell id="pC6qjMNUaUX_Bs6oKTgu-72" value="x CPUs" style="whiteSpace=wrap;html=1;align=center;verticalAlign=middle;treeFolding=1;treeMoving=1;newEdgeStyle={&quot;edgeStyle&quot;:&quot;elbowEdgeStyle&quot;,&quot;startArrow&quot;:&quot;none&quot;,&quot;endArrow&quot;:&quot;none&quot;};fillColor=light-dark(#FFFFFF,#FF1A6E);" parent="pC6qjMNUaUX_Bs6oKTgu-1" vertex="1">
          <mxGeometry x="10" y="340" width="100" height="60" as="geometry" />
        </mxCell>
        <mxCell id="pC6qjMNUaUX_Bs6oKTgu-73" value="" style="edgeStyle=elbowEdgeStyle;elbow=vertical;sourcePerimeterSpacing=0;targetPerimeterSpacing=0;startArrow=none;endArrow=none;rounded=0;curved=0;" parent="pC6qjMNUaUX_Bs6oKTgu-1" source="pC6qjMNUaUX_Bs6oKTgu-11" target="pC6qjMNUaUX_Bs6oKTgu-74" edge="1">
          <mxGeometry relative="1" as="geometry">
            <mxPoint x="640" y="280" as="sourcePoint" />
          </mxGeometry>
        </mxCell>
        <mxCell id="pC6qjMNUaUX_Bs6oKTgu-74" value="Lizenzen" style="whiteSpace=wrap;html=1;align=center;verticalAlign=middle;treeFolding=1;treeMoving=1;newEdgeStyle={&quot;edgeStyle&quot;:&quot;elbowEdgeStyle&quot;,&quot;startArrow&quot;:&quot;none&quot;,&quot;endArrow&quot;:&quot;none&quot;};fillColor=light-dark(#FFFFFF,#FF1A6E);" parent="pC6qjMNUaUX_Bs6oKTgu-1" vertex="1">
          <mxGeometry x="1157" y="340" width="100" height="60" as="geometry" />
        </mxCell>
        <mxCell id="pC6qjMNUaUX_Bs6oKTgu-75" value="" style="edgeStyle=elbowEdgeStyle;elbow=vertical;sourcePerimeterSpacing=0;targetPerimeterSpacing=0;startArrow=none;endArrow=none;rounded=0;curved=0;" parent="pC6qjMNUaUX_Bs6oKTgu-1" source="pC6qjMNUaUX_Bs6oKTgu-31" target="pC6qjMNUaUX_Bs6oKTgu-76" edge="1">
          <mxGeometry relative="1" as="geometry">
            <mxPoint x="-20" y="280" as="sourcePoint" />
          </mxGeometry>
        </mxCell>
        <mxCell id="pC6qjMNUaUX_Bs6oKTgu-76" value="Lizenzen" style="whiteSpace=wrap;html=1;align=center;verticalAlign=middle;treeFolding=1;treeMoving=1;newEdgeStyle={&quot;edgeStyle&quot;:&quot;elbowEdgeStyle&quot;,&quot;startArrow&quot;:&quot;none&quot;,&quot;endArrow&quot;:&quot;none&quot;};fillColor=light-dark(#FFFFFF,#FF1A6E);" parent="pC6qjMNUaUX_Bs6oKTgu-1" vertex="1">
          <mxGeometry x="470" y="340" width="100" height="60" as="geometry" />
        </mxCell>
        <mxCell id="pC6qjMNUaUX_Bs6oKTgu-89" style="edgeStyle=orthogonalEdgeStyle;rounded=0;orthogonalLoop=1;jettySize=auto;html=1;exitX=0.5;exitY=1;exitDx=0;exitDy=0;entryX=0.5;entryY=0;entryDx=0;entryDy=0;" parent="1" source="pC6qjMNUaUX_Bs6oKTgu-77" edge="1">
          <mxGeometry relative="1" as="geometry">
            <mxPoint x="175" y="1220" as="targetPoint" />
          </mxGeometry>
        </mxCell>
        <mxCell id="pC6qjMNUaUX_Bs6oKTgu-77" value="ETL Layer&lt;div&gt;Golang oder Python&lt;/div&gt;&lt;div&gt;Efficiency vs ML/statisitics potential?&lt;/div&gt;" style="rhombus;whiteSpace=wrap;html=1;fontStyle=1;startSize=20;horizontal=1;" parent="1" vertex="1">
          <mxGeometry x="48.75" y="840" width="252.5" height="230" as="geometry" />
        </mxCell>
        <mxCell id="pC6qjMNUaUX_Bs6oKTgu-82" value="&lt;div&gt;&lt;p style=&quot;&quot;&gt;&lt;font style=&quot;color: light-dark(rgb(248, 248, 242), rgb(255, 255, 255));&quot;&gt;&lt;b&gt;&lt;font style=&quot;&quot; face=&quot;Helvetica&quot;&gt;Transform Data and Insert in MongoDB / Postgre&lt;br&gt;&lt;/font&gt;&lt;font style=&quot;&quot; face=&quot;Helvetica&quot;&gt;IDs in Namen auflösen &lt;span&gt;(&lt;/span&gt;Kundennamen, Projektnamen, Zonen etc.&lt;span&gt;)&lt;br&gt;&lt;/span&gt;&lt;/font&gt;&lt;font style=&quot;&quot; face=&quot;Helvetica&quot;&gt;Gruppieren &lt;span&gt;(&lt;/span&gt;z.B. CPU-Zeit pro VM, Summen pro Kunde&lt;span&gt;)&lt;br&gt;&lt;/span&gt;&lt;/font&gt;&lt;font style=&quot;&quot; face=&quot;Helvetica&quot;&gt;Zeiträume normalisieren &lt;span&gt;(&lt;/span&gt;z.B. Monatsblöcke&lt;span&gt;)&lt;br&gt;&lt;/span&gt;&lt;/font&gt;&lt;font style=&quot;&quot; face=&quot;Helvetica&quot;&gt;Preise anwenden (z.B. €0,05 pro GB·h)&lt;/font&gt;&lt;/b&gt;&lt;/font&gt;&lt;/p&gt;&lt;/div&gt;" style="ellipse;whiteSpace=wrap;html=1;" parent="1" vertex="1">
          <mxGeometry x="320" y="850" width="476" height="220" as="geometry" />
        </mxCell>
        <mxCell id="pC6qjMNUaUX_Bs6oKTgu-93" value="" style="edgeStyle=orthogonalEdgeStyle;rounded=0;orthogonalLoop=1;jettySize=auto;html=1;" parent="1" source="pC6qjMNUaUX_Bs6oKTgu-91" target="pC6qjMNUaUX_Bs6oKTgu-92" edge="1">
          <mxGeometry relative="1" as="geometry" />
        </mxCell>
        <mxCell id="pC6qjMNUaUX_Bs6oKTgu-91" value="PostgreSQL/MongoDb Table&lt;div&gt;Clean Data for Billing&lt;/div&gt;" style="whiteSpace=wrap;html=1;" parent="1" vertex="1">
          <mxGeometry x="100" y="1220" width="150" height="100" as="geometry" />
        </mxCell>
        <mxCell id="pC6qjMNUaUX_Bs6oKTgu-97" value="" style="edgeStyle=orthogonalEdgeStyle;rounded=0;orthogonalLoop=1;jettySize=auto;html=1;" parent="1" source="pC6qjMNUaUX_Bs6oKTgu-92" target="pC6qjMNUaUX_Bs6oKTgu-96" edge="1">
          <mxGeometry relative="1" as="geometry" />
        </mxCell>
        <mxCell id="pC6qjMNUaUX_Bs6oKTgu-99" value="" style="edgeStyle=orthogonalEdgeStyle;rounded=0;orthogonalLoop=1;jettySize=auto;html=1;" parent="1" source="pC6qjMNUaUX_Bs6oKTgu-92" target="pC6qjMNUaUX_Bs6oKTgu-98" edge="1">
          <mxGeometry relative="1" as="geometry" />
        </mxCell>
        <mxCell id="pC6qjMNUaUX_Bs6oKTgu-124" value="" style="edgeStyle=orthogonalEdgeStyle;rounded=0;orthogonalLoop=1;jettySize=auto;html=1;" parent="1" source="pC6qjMNUaUX_Bs6oKTgu-92" edge="1">
          <mxGeometry relative="1" as="geometry">
            <mxPoint x="175" y="1670" as="targetPoint" />
          </mxGeometry>
        </mxCell>
        <mxCell id="pC6qjMNUaUX_Bs6oKTgu-141" value="" style="edgeStyle=orthogonalEdgeStyle;rounded=0;orthogonalLoop=1;jettySize=auto;html=1;" parent="1" source="pC6qjMNUaUX_Bs6oKTgu-92" target="pC6qjMNUaUX_Bs6oKTgu-140" edge="1">
          <mxGeometry relative="1" as="geometry" />
        </mxCell>
        <mxCell id="pC6qjMNUaUX_Bs6oKTgu-92" value="Billing BE&amp;nbsp;" style="whiteSpace=wrap;html=1;fontStyle=1" parent="1" vertex="1">
          <mxGeometry x="100" y="1400" width="150" height="100" as="geometry" />
        </mxCell>
        <mxCell id="pC6qjMNUaUX_Bs6oKTgu-101" value="" style="edgeStyle=orthogonalEdgeStyle;rounded=0;orthogonalLoop=1;jettySize=auto;html=1;" parent="1" source="pC6qjMNUaUX_Bs6oKTgu-96" target="pC6qjMNUaUX_Bs6oKTgu-100" edge="1">
          <mxGeometry relative="1" as="geometry" />
        </mxCell>
        <mxCell id="pC6qjMNUaUX_Bs6oKTgu-102" value="" style="edgeStyle=orthogonalEdgeStyle;rounded=0;orthogonalLoop=1;jettySize=auto;html=1;" parent="1" source="pC6qjMNUaUX_Bs6oKTgu-96" target="pC6qjMNUaUX_Bs6oKTgu-100" edge="1">
          <mxGeometry relative="1" as="geometry" />
        </mxCell>
        <mxCell id="pC6qjMNUaUX_Bs6oKTgu-103" value="" style="edgeStyle=orthogonalEdgeStyle;rounded=0;orthogonalLoop=1;jettySize=auto;html=1;" parent="1" source="pC6qjMNUaUX_Bs6oKTgu-96" target="pC6qjMNUaUX_Bs6oKTgu-100" edge="1">
          <mxGeometry relative="1" as="geometry" />
        </mxCell>
        <mxCell id="pC6qjMNUaUX_Bs6oKTgu-107" value="" style="edgeStyle=orthogonalEdgeStyle;rounded=0;orthogonalLoop=1;jettySize=auto;html=1;" parent="1" source="pC6qjMNUaUX_Bs6oKTgu-96" target="pC6qjMNUaUX_Bs6oKTgu-106" edge="1">
          <mxGeometry relative="1" as="geometry" />
        </mxCell>
        <mxCell id="pC6qjMNUaUX_Bs6oKTgu-109" value="" style="edgeStyle=orthogonalEdgeStyle;rounded=0;orthogonalLoop=1;jettySize=auto;html=1;" parent="1" source="pC6qjMNUaUX_Bs6oKTgu-96" target="pC6qjMNUaUX_Bs6oKTgu-108" edge="1">
          <mxGeometry relative="1" as="geometry" />
        </mxCell>
        <mxCell id="pC6qjMNUaUX_Bs6oKTgu-111" value="" style="edgeStyle=orthogonalEdgeStyle;rounded=0;orthogonalLoop=1;jettySize=auto;html=1;" parent="1" source="pC6qjMNUaUX_Bs6oKTgu-96" target="pC6qjMNUaUX_Bs6oKTgu-110" edge="1">
          <mxGeometry relative="1" as="geometry" />
        </mxCell>
        <mxCell id="pC6qjMNUaUX_Bs6oKTgu-113" value="" style="edgeStyle=orthogonalEdgeStyle;rounded=0;orthogonalLoop=1;jettySize=auto;html=1;" parent="1" source="pC6qjMNUaUX_Bs6oKTgu-96" target="pC6qjMNUaUX_Bs6oKTgu-112" edge="1">
          <mxGeometry relative="1" as="geometry" />
        </mxCell>
        <mxCell id="pC6qjMNUaUX_Bs6oKTgu-96" value="Read API" style="shape=parallelogram;perimeter=parallelogramPerimeter;whiteSpace=wrap;html=1;fixedSize=1;fontStyle=1" parent="1" vertex="1">
          <mxGeometry x="417.5" y="1420" width="510" height="60" as="geometry" />
        </mxCell>
        <mxCell id="pC6qjMNUaUX_Bs6oKTgu-116" value="" style="edgeStyle=orthogonalEdgeStyle;rounded=0;orthogonalLoop=1;jettySize=auto;html=1;" parent="1" source="pC6qjMNUaUX_Bs6oKTgu-98" target="pC6qjMNUaUX_Bs6oKTgu-115" edge="1">
          <mxGeometry relative="1" as="geometry" />
        </mxCell>
        <mxCell id="pC6qjMNUaUX_Bs6oKTgu-118" value="" style="edgeStyle=orthogonalEdgeStyle;rounded=0;orthogonalLoop=1;jettySize=auto;html=1;" parent="1" source="pC6qjMNUaUX_Bs6oKTgu-98" target="pC6qjMNUaUX_Bs6oKTgu-117" edge="1">
          <mxGeometry relative="1" as="geometry" />
        </mxCell>
        <mxCell id="pC6qjMNUaUX_Bs6oKTgu-120" value="" style="edgeStyle=orthogonalEdgeStyle;rounded=0;orthogonalLoop=1;jettySize=auto;html=1;" parent="1" source="pC6qjMNUaUX_Bs6oKTgu-98" target="pC6qjMNUaUX_Bs6oKTgu-119" edge="1">
          <mxGeometry relative="1" as="geometry" />
        </mxCell>
        <mxCell id="pC6qjMNUaUX_Bs6oKTgu-122" value="" style="edgeStyle=orthogonalEdgeStyle;rounded=0;orthogonalLoop=1;jettySize=auto;html=1;" parent="1" source="pC6qjMNUaUX_Bs6oKTgu-98" target="pC6qjMNUaUX_Bs6oKTgu-121" edge="1">
          <mxGeometry relative="1" as="geometry" />
        </mxCell>
        <mxCell id="pC6qjMNUaUX_Bs6oKTgu-98" value="Write API" style="shape=parallelogram;perimeter=parallelogramPerimeter;whiteSpace=wrap;html=1;fixedSize=1;fontStyle=1" parent="1" vertex="1">
          <mxGeometry x="-540" y="1420" width="545" height="60" as="geometry" />
        </mxCell>
        <mxCell id="pC6qjMNUaUX_Bs6oKTgu-100" value="&lt;h3 data-end=&quot;260&quot; data-start=&quot;219&quot;&gt;&lt;font style=&quot;font-size: 12px;&quot;&gt;Rechnungen pro Kunde, Monat, Zeitraum&lt;/font&gt;&lt;/h3&gt;" style="ellipse;whiteSpace=wrap;html=1;" parent="1" vertex="1">
          <mxGeometry x="870" y="1560" width="115" height="120" as="geometry" />
        </mxCell>
        <mxCell id="pC6qjMNUaUX_Bs6oKTgu-106" value="&lt;b&gt;Einzelposten (VMs, Speicher, Traffic)&lt;/b&gt;" style="ellipse;whiteSpace=wrap;html=1;" parent="1" vertex="1">
          <mxGeometry x="740" y="1560" width="120" height="120" as="geometry" />
        </mxCell>
        <mxCell id="pC6qjMNUaUX_Bs6oKTgu-108" value="&lt;b&gt;Aggregierte Summen (Monatssummen, Kundensummen)&lt;/b&gt;" style="ellipse;whiteSpace=wrap;html=1;" parent="1" vertex="1">
          <mxGeometry x="610" y="1560" width="125" height="120" as="geometry" />
        </mxCell>
        <mxCell id="pC6qjMNUaUX_Bs6oKTgu-110" value="&lt;b&gt;Preisregeln, Tarife, Abrechnungseinheiten&lt;/b&gt;" style="ellipse;whiteSpace=wrap;html=1;" parent="1" vertex="1">
          <mxGeometry x="470" y="1560" width="130" height="120" as="geometry" />
        </mxCell>
        <mxCell id="pC6qjMNUaUX_Bs6oKTgu-112" value="&lt;b&gt;Verrechnete Ressourcen (z. B. alle VMs von Kunde X im Juli)&lt;/b&gt;" style="ellipse;whiteSpace=wrap;html=1;" parent="1" vertex="1">
          <mxGeometry x="340" y="1560" width="120" height="120" as="geometry" />
        </mxCell>
        <mxCell id="pC6qjMNUaUX_Bs6oKTgu-115" value="Rechnungsfreigaben oder Markierungen („bezahlt“, „exportiert“)" style="ellipse;whiteSpace=wrap;html=1;" parent="1" vertex="1">
          <mxGeometry x="-400" y="1560" width="120" height="120" as="geometry" />
        </mxCell>
        <mxCell id="pC6qjMNUaUX_Bs6oKTgu-117" value="Preisaktualisierungen (Tarife, Währungen)" style="ellipse;whiteSpace=wrap;html=1;" parent="1" vertex="1">
          <mxGeometry x="-260" y="1560" width="120" height="120" as="geometry" />
        </mxCell>
        <mxCell id="pC6qjMNUaUX_Bs6oKTgu-119" value="Kundenstammdaten" style="ellipse;whiteSpace=wrap;html=1;" parent="1" vertex="1">
          <mxGeometry x="-550" y="1560" width="120" height="120" as="geometry" />
        </mxCell>
        <mxCell id="pC6qjMNUaUX_Bs6oKTgu-121" value="Manuelle Korrekturen (z. B. Gutschriften, Sonderfälle)" style="ellipse;whiteSpace=wrap;html=1;" parent="1" vertex="1">
          <mxGeometry x="-115" y="1560" width="120" height="120" as="geometry" />
        </mxCell>
        <mxCell id="pC6qjMNUaUX_Bs6oKTgu-128" value="" style="edgeStyle=orthogonalEdgeStyle;rounded=0;orthogonalLoop=1;jettySize=auto;html=1;" parent="1" source="pC6qjMNUaUX_Bs6oKTgu-126" edge="1">
          <mxGeometry relative="1" as="geometry">
            <mxPoint x="280" y="1780" as="targetPoint" />
          </mxGeometry>
        </mxCell>
        <mxCell id="pC6qjMNUaUX_Bs6oKTgu-139" value="" style="edgeStyle=orthogonalEdgeStyle;rounded=0;orthogonalLoop=1;jettySize=auto;html=1;" parent="1" source="pC6qjMNUaUX_Bs6oKTgu-126" target="pC6qjMNUaUX_Bs6oKTgu-138" edge="1">
          <mxGeometry relative="1" as="geometry" />
        </mxCell>
        <mxCell id="pC6qjMNUaUX_Bs6oKTgu-126" value="Integration" style="shape=parallelogram;perimeter=parallelogramPerimeter;whiteSpace=wrap;html=1;fixedSize=1;fontStyle=1" parent="1" vertex="1">
          <mxGeometry x="55" y="1670" width="240" height="60" as="geometry" />
        </mxCell>
        <mxCell id="pC6qjMNUaUX_Bs6oKTgu-133" value="API für Exporte an:" style="swimlane;fontStyle=1;childLayout=stackLayout;horizontal=1;startSize=26;fillColor=none;horizontalStack=0;resizeParent=1;resizeParentMax=0;resizeLast=0;collapsible=1;marginBottom=0;html=1;" parent="1" vertex="1">
          <mxGeometry x="200" y="1780" width="160" height="112" as="geometry" />
        </mxCell>
        <mxCell id="pC6qjMNUaUX_Bs6oKTgu-134" value="E-Mail-Systeme (Rechnungsversand)" style="text;strokeColor=none;fillColor=none;align=left;verticalAlign=top;spacingLeft=4;spacingRight=4;overflow=hidden;rotatable=0;points=[[0,0.5],[1,0.5]];portConstraint=eastwest;whiteSpace=wrap;html=1;fontStyle=1" parent="pC6qjMNUaUX_Bs6oKTgu-133" vertex="1">
          <mxGeometry y="26" width="160" height="34" as="geometry" />
        </mxCell>
        <mxCell id="pC6qjMNUaUX_Bs6oKTgu-135" value="ERP&lt;span style=&quot;white-space: pre;&quot;&gt;&#x9;&lt;/span&gt;" style="text;strokeColor=none;fillColor=none;align=left;verticalAlign=top;spacingLeft=4;spacingRight=4;overflow=hidden;rotatable=0;points=[[0,0.5],[1,0.5]];portConstraint=eastwest;whiteSpace=wrap;html=1;fontStyle=1" parent="pC6qjMNUaUX_Bs6oKTgu-133" vertex="1">
          <mxGeometry y="60" width="160" height="26" as="geometry" />
        </mxCell>
        <mxCell id="pC6qjMNUaUX_Bs6oKTgu-136" value="CRM" style="text;strokeColor=none;fillColor=none;align=left;verticalAlign=top;spacingLeft=4;spacingRight=4;overflow=hidden;rotatable=0;points=[[0,0.5],[1,0.5]];portConstraint=eastwest;whiteSpace=wrap;html=1;fontStyle=1" parent="pC6qjMNUaUX_Bs6oKTgu-133" vertex="1">
          <mxGeometry y="86" width="160" height="26" as="geometry" />
        </mxCell>
        <mxCell id="pC6qjMNUaUX_Bs6oKTgu-138" value="Webhooks oder Pull-Schnittstellen" style="whiteSpace=wrap;html=1;fontStyle=1" parent="1" vertex="1">
          <mxGeometry x="-10" y="1780" width="120" height="60" as="geometry" />
        </mxCell>
        <mxCell id="pC6qjMNUaUX_Bs6oKTgu-143" value="" style="edgeStyle=orthogonalEdgeStyle;rounded=0;orthogonalLoop=1;jettySize=auto;html=1;" parent="1" source="pC6qjMNUaUX_Bs6oKTgu-140" target="pC6qjMNUaUX_Bs6oKTgu-142" edge="1">
          <mxGeometry relative="1" as="geometry" />
        </mxCell>
        <mxCell id="pC6qjMNUaUX_Bs6oKTgu-140" value="Sicherheit und Rechte" style="shape=parallelogram;perimeter=parallelogramPerimeter;whiteSpace=wrap;html=1;fixedSize=1;fontStyle=1" parent="1" vertex="1">
          <mxGeometry x="48.75" y="1920" width="250" height="60" as="geometry" />
        </mxCell>
        <mxCell id="pC6qjMNUaUX_Bs6oKTgu-142" value="Logging" style="shape=parallelogram;perimeter=parallelogramPerimeter;whiteSpace=wrap;html=1;fixedSize=1;fontStyle=1;" parent="1" vertex="1">
          <mxGeometry x="38.75" y="2050" width="270" height="60" as="geometry" />
        </mxCell>
      </root>
    </mxGraphModel>
  </diagram>
</mxfile>
